<svg xmlns="http://www.w3.org/2000/svg" xmlns:xlink="http://www.w3.org/1999/xlink" viewBox="0,0,256,256" width="50px" height="50px" fill-rule="nonzero"><g fill="#000000" fill-rule="nonzero" stroke="none" stroke-width="1" stroke-linecap="butt" stroke-linejoin="miter" stroke-miterlimit="10" stroke-dasharray="" stroke-dashoffset="0" font-family="none" font-weight="none" font-size="none" text-anchor="none" style="mix-blend-mode: normal"><path d="M0,256v-256h256v256z" id="bgRectangle"></path></g><g fill="#ffffff" fill-rule="nonzero" stroke="none" stroke-width="1" stroke-linecap="butt" stroke-linejoin="miter" stroke-miterlimit="10" stroke-dasharray="" stroke-dashoffset="0" font-family="none" font-weight="none" font-size="none" text-anchor="none" style="mix-blend-mode: normal"><g transform="scale(5.12,5.12)"><path d="M36,2c-3.53906,0 -6.70703,1.55469 -8.90625,4h-20.75c-2.38281,0 -4.34375,1.96094 -4.34375,4.34375v32.875c-0.01562,0.10547 -0.01562,0.20703 0,0.3125v0.125c0,2.38281 1.96094,4.34375 4.34375,4.34375h33.3125c2.38281,0 4.34375,-1.96094 4.34375,-4.34375v-0.09375c0.01563,-0.10547 0.01563,-0.20703 0,-0.3125v-19.8125c2.10547,-2.80469 4,-5.54297 4,-9.4375c0,-6.61719 -5.38281,-12 -12,-12zM36,4c5.53516,0 10,4.46484 10,10c0,3.41406 -1.69141,5.69141 -3.90625,8.625c-2.12109,2.80859 -4.61719,6.19922 -6.09375,11.3125c-1.47656,-5.11328 -3.97266,-8.50391 -6.09375,-11.3125c-0.82422,-1.09375 -1.59766,-2.08984 -2.21875,-3.09375c0,-0.01172 0,-0.01953 0,-0.03125c-0.01172,-0.01953 -0.01953,-0.04297 -0.03125,-0.0625c-0.04297,-0.16406 -0.12891,-0.31641 -0.25,-0.4375c-0.86328,-1.51953 -1.40625,-3.07812 -1.40625,-5c0,-5.53516 4.46484,-10 10,-10zM6.34375,8h19.28125c-1.02734,1.76563 -1.625,3.8125 -1.625,6c0,2.13672 0.57813,3.91797 1.4375,5.5625l-21.4375,21.40625v-30.625c0,-1.30078 1.04297,-2.34375 2.34375,-2.34375zM12.125,10c-3.375,0 -6.125,2.75 -6.125,6.125c0,3.375 2.75,6.09375 6.125,6.09375c5.34375,0 6.25391,-4.80469 5.75,-7.1875h-5.75v2.34375h3.3125c-0.43359,1.41406 -1.60156,2.4375 -3.3125,2.4375c-2.03516,0 -3.6875,-1.65234 -3.6875,-3.6875c0,-2.03516 1.65234,-3.6875 3.6875,-3.6875c0.91406,0 1.73047,0.32422 2.375,0.875l1.71875,-1.71875c-1.08594,-0.98828 -2.50781,-1.59375 -4.09375,-1.59375zM36,10c-2.19922,0 -4,1.80078 -4,4c0,2.19922 1.80078,4 4,4c2.19922,0 4,-1.80078 4,-4c0,-2.19922 -1.80078,-4 -4,-4zM36,12c1.11719,0 2,0.88281 2,2c0,1.11719 -0.88281,2 -2,2c-1.11719,0 -2,-0.88281 -2,-2c0,-1.11719 0.88281,-2 2,-2zM26.5,21.3125c0.5625,0.84766 1.14844,1.69531 1.78125,2.53125c0.00781,0.01172 0.02344,0.01953 0.03125,0.03125l-22.09375,22.09375c-1.19531,-0.06641 -2.12109,-0.99219 -2.1875,-2.1875zM29.5,25.5c1.42969,1.95313 2.85547,4.12109 3.9375,6.9375l-5.4375,-5.4375zM42,26.15625v14.8125l-4.65625,-4.625c0.04688,-0.08203 0.09766,-0.17578 0.125,-0.25c0.16406,-0.43359 0.14453,-0.71875 0.21875,-1c0.99609,-3.82812 2.625,-6.57031 4.3125,-8.9375zM26.59375,28.40625l15.375,15.375c-0.06641,1.19531 -0.99219,2.12109 -2.1875,2.1875l-15.375,-15.375zM23,32l13.96875,14h-27.9375z"></path></g></g></svg>