<svg xmlns="http://www.w3.org/2000/svg" xmlns:xlink="http://www.w3.org/1999/xlink" viewBox="0,0,256,256" width="50px" height="50px" fill-rule="nonzero"><g fill="#000000" fill-rule="nonzero" stroke="none" stroke-width="1" stroke-linecap="butt" stroke-linejoin="miter" stroke-miterlimit="10" stroke-dasharray="" stroke-dashoffset="0" font-family="none" font-weight="none" font-size="none" text-anchor="none" style="mix-blend-mode: normal"><path d="M0,256v-256h256v256z" id="bgRectangle"></path></g><g fill="#ffffff" fill-rule="nonzero" stroke="none" stroke-width="1" stroke-linecap="butt" stroke-linejoin="miter" stroke-miterlimit="10" stroke-dasharray="" stroke-dashoffset="0" font-family="none" font-weight="none" font-size="none" text-anchor="none" style="mix-blend-mode: normal"><g transform="scale(5.12,5.12)"><path d="M25,2c-4.68441,0 -9.04253,1.40878 -12.67969,3.82031c-0.20918,0.11889 -0.41769,0.23921 -0.61328,0.375c-0.08685,0.05856 -0.16396,0.1304 -0.22851,0.21289c-5.74041,4.18477 -9.47852,10.95509 -9.47852,18.5918c0,12.68867 10.31134,23 23,23c6.15149,0 11.72724,-2.43941 15.85547,-6.38281c0.12238,-0.07574 0.22698,-0.17701 0.30664,-0.29688c3.54101,-3.50941 5.96381,-8.14574 6.63867,-13.33594c0.00975,-0.05026 0.01563,-0.10119 0.01758,-0.15234c0.11446,-0.92876 0.18164,-1.87266 0.18164,-2.83203c0,-2.16087 -0.30437,-4.25059 -0.86328,-6.23437c-0.01286,-0.10137 -0.04119,-0.20018 -0.08398,-0.29297c-0.00129,-0.00261 -0.00259,-0.00521 -0.00391,-0.00781c-2.82131,-9.51101 -11.63068,-16.46484 -22.04883,-16.46484zM25,4c9.25101,0 17.089,5.96896 19.89258,14.26758c-0.00372,0.00638 -0.00988,0.01532 -0.01367,0.02148c-0.06421,0.10449 -0.11103,0.18951 -0.1582,0.26563c-0.18868,0.30447 -0.19342,0.44531 -0.7207,0.44531c-0.63836,0 -1.53611,-0.64177 -2.64648,-1.98242c-1.11037,-1.34065 -2.36934,-3.22741 -3.91797,-5.14648c-2.96775,-3.67767 -7.14471,-7.52195 -13.58789,-7.83789c0.38148,-0.02058 0.76568,-0.0332 1.15234,-0.0332zM21,5.99609c0,0.0013 0,0.0026 0,0.00391c0,0.55228 0.44772,1 1,1c0.55228,0 1,-0.44772 1,-1c1.54261,0 2.93344,0.21736 4.19922,0.59961c0.00065,0 0.0013,0 0.00195,0c0.18853,0.25162 0.48441,0.39993 0.79883,0.40039c0.08375,-0.00064 0.16708,-0.01179 0.24805,-0.0332c0.81169,0.32042 1.56694,0.7108 2.27734,1.1543c-0.32322,0.17428 -0.52492,0.51169 -0.52539,0.87891c0,0.55228 0.44772,1 1,1c0.49281,0.00013 0.91224,-0.3588 0.98828,-0.8457c0.71856,0.56856 1.37756,1.1953 2.00586,1.8457c-0.55,0.00322 -0.99415,0.45 -0.99414,1c0,0.55228 0.44772,1 1,1c0.51889,-0.00011 0.9515,-0.39709 0.99609,-0.91406c0.30003,0.34527 0.59895,0.6912 0.88281,1.04297c0.25491,0.31589 0.49449,0.63163 0.73633,0.94727c-0.37284,0.15542 -0.61556,0.51989 -0.61523,0.92383c0,0.55228 0.44772,1 1,1c0.30318,-0.0004 0.58981,-0.13833 0.7793,-0.375c0.47326,0.64256 0.92964,1.25627 1.37695,1.83594c-0.10247,0.16109 -0.15669,0.34814 -0.15625,0.53906c0,0.55228 0.44772,1 1,1c0.12927,-0.00014 0.25728,-0.02535 0.37695,-0.07422c0.55945,0.62065 1.13727,1.17355 1.77539,1.54492c-0.09933,0.15869 -0.15211,0.34208 -0.15234,0.5293c0,0.55228 0.44772,1 1,1c0.55228,0 1,-0.44772 1,-1c0.64502,0 1.12962,-0.22485 1.51172,-0.50586c0.17904,0.82011 0.30525,1.65926 0.38672,2.51172c-0.51005,0.05207 -0.89809,0.48144 -0.89844,0.99414c0,0.55228 0.44772,1 1,1c0,0.56205 -0.02903,1.11711 -0.07227,1.66797c-1.358,-0.26982 -3.14191,-1.10525 -5.00781,-2.2793c0.05239,-0.12291 0.07962,-0.25507 0.08008,-0.38867c0,-0.55228 -0.44772,-1 -1,-1c-0.26548,0.00056 -0.51985,0.10666 -0.70703,0.29492c-0.62612,-0.44284 -1.24869,-0.90438 -1.87305,-1.38867c0.35325,-0.16345 0.57957,-0.51702 0.58008,-0.90625c0,-0.55228 -0.44772,-1 -1,-1c-0.47316,0.00011 -0.88148,0.33182 -0.97852,0.79492c-0.73082,-0.59826 -1.43997,-1.19953 -2.12695,-1.80078c0.03503,0.00381 0.07023,0.00577 0.10547,0.00586c0.55228,0 1,-0.44772 1,-1c0,-0.55228 -0.44772,-1 -1,-1c-0.55228,0 -1,0.44772 -1,1c-0.00001,0.07828 0.00916,0.15629 0.02734,0.23242c-0.77865,-0.68492 -1.612,-1.49141 -2.47461,-2.33789c0.13888,0.0694 0.29201,0.10551 0.44727,0.10547c0.55228,0 1,-0.44772 1,-1c0,-0.55228 -0.44772,-1 -1,-1c-0.55228,0 -1,0.44772 -1,1c0.0008,0.16216 0.04101,0.32169 0.11719,0.46484c-1.39812,-1.3745 -2.88999,-2.83682 -4.49414,-4.16992c-2.81759,-2.34153 -6.00471,-4.29492 -9.62305,-4.29492c-0.57907,0 -1.11506,0.03201 -1.62695,0.08008c0.31202,-0.11668 0.64443,-0.22017 0.98438,-0.31641c0.17971,0.15193 0.40725,0.23561 0.64258,0.23633c0.39501,-0.001 0.75241,-0.23442 0.91211,-0.5957c0.71012,-0.13328 1.42818,-0.2347 2.10938,-0.29687c0.73829,-0.06739 1.38935,-0.09556 1.97852,-0.11133zM25,8c-0.55228,0 -1,0.44772 -1,1c0,0.55228 0.44772,1 1,1c0.55228,0 1,-0.44772 1,-1c0,-0.55228 -0.44772,-1 -1,-1zM16,9c2.88566,0 5.68084,1.62101 8.34375,3.83398c2.66291,2.21298 5.13534,4.96325 7.45898,6.99024c2.26772,2.02573 4.9231,4.22265 7.53516,5.93945c2.19655,1.4437 4.33363,2.57578 6.33789,2.9043c-0.11984,0.68141 -0.27328,1.35084 -0.45703,2.00781c-7.31585,-0.21429 -12.78519,-4.07579 -17.78125,-8.10547c-5.14043,-4.14612 -9.73375,-8.57031 -15.4375,-8.57031c-2.46091,0 -4.43504,0.88247 -5.91211,1.91211c0.80716,-1.67809 1.82144,-3.2333 3.02539,-4.62695c0.07922,-0.05401 0.15025,-0.11913 0.21094,-0.19336c0,0 0.32541,-0.43212 1.36719,-0.97461c1.04178,-0.54249 2.73306,-1.11719 5.30859,-1.11719zM28,11c-0.55228,0 -1,0.44772 -1,1c0,0.55228 0.44772,1 1,1c0.55228,0 1,-0.44772 1,-1c0,-0.55228 -0.44772,-1 -1,-1zM12,16c1.45574,0 2.88251,0.39107 4.31836,1.05469c-0.10245,-0.03536 -0.20998,-0.05383 -0.31836,-0.05469c-0.55228,0 -1,0.44772 -1,1c0,0.55228 0.44772,1 1,1c0.55228,0 1,-0.44772 1,-1c-0.00041,-0.32975 -0.16335,-0.63809 -0.43555,-0.82422c3.04757,1.47319 6.14027,4.1468 9.61719,6.95117c1.21746,0.98197 2.48601,1.97067 3.82031,2.91211c0.02096,0.53622 0.46142,0.9603 0.99805,0.96094c0.11879,-0.00066 0.23652,-0.02249 0.34766,-0.06445c0.66977,0.43841 1.35886,0.85606 2.06445,1.25586c-0.25881,0.18809 -0.412,0.48866 -0.41211,0.80859c0,0.55228 0.44772,1 1,1c0.53229,-0.00035 0.97102,-0.41761 0.99805,-0.94922c2.2039,1.08847 4.58992,1.92609 7.20898,2.3418c-0.13387,0.17423 -0.20663,0.3877 -0.20703,0.60742c0,0.55228 0.44772,1 1,1c0.55228,0 1,-0.44772 1,-1c-0.00045,-0.13862 -0.02971,-0.27564 -0.08594,-0.40234c0.21511,0.0179 0.42635,0.04267 0.64453,0.05469c-0.47712,1.22012 -1.07931,2.37439 -1.76562,3.4707c-0.2582,0.13488 -3.66144,1.87695 -7.79297,1.87695c-5.07455,0 -8.94101,-0.7053 -12.06055,-1.66211c0.03951,-0.1083 0.05999,-0.22261 0.06055,-0.33789c0,-0.55228 -0.44772,-1 -1,-1c-0.43496,0.00083 -0.8195,0.28272 -0.95117,0.69727c-0.96302,-0.35728 -1.86226,-0.73071 -2.6875,-1.10742c-1.76363,-0.80507 -3.24834,-1.63326 -4.65625,-2.29883c-0.16954,-0.16899 -0.39408,-0.27155 -0.63281,-0.28906h-0.00195c-1.35585,-0.59498 -2.65719,-1.00195 -4.07031,-1.00195c-1.7,0 -2.90727,0.77336 -3.59961,1.54492c-0.23963,-0.62292 -0.44597,-1.26239 -0.62695,-1.91211c0.14627,-0.17848 0.22632,-0.40205 0.22656,-0.63281c-0.00073,-0.39292 -0.23149,-0.749 -0.58984,-0.91016c-0.26264,-1.32329 -0.41016,-2.68866 -0.41016,-4.08984c0.55228,0 1,-0.44772 1,-1c-0.00025,-0.51202 -0.38721,-0.94114 -0.89648,-0.99414c0.08873,-0.92691 0.22984,-1.83826 0.43359,-2.72656c0.02846,-0.03467 0.05457,-0.07121 0.07813,-0.10937c0,0 2.60558,-4.16992 7.38477,-4.16992zM10,17c-0.55228,0 -1,0.44772 -1,1c0,0.55228 0.44772,1 1,1c0.55228,0 1,-0.44772 1,-1c0,-0.55228 -0.44772,-1 -1,-1zM7,20c-0.55228,0 -1,0.44772 -1,1c0,0.55228 0.44772,1 1,1c0.55228,0 1,-0.44772 1,-1c0,-0.55228 -0.44772,-1 -1,-1zM13,20c-0.55228,0 -1,0.44772 -1,1c0,0.55228 0.44772,1 1,1c0.55228,0 1,-0.44772 1,-1c0,-0.55228 -0.44772,-1 -1,-1zM19,20c-0.55228,0 -1,0.44772 -1,1c0,0.55228 0.44772,1 1,1c0.55228,0 1,-0.44772 1,-1c0,-0.55228 -0.44772,-1 -1,-1zM10,23c-0.55228,0 -1,0.44772 -1,1c0,0.55228 0.44772,1 1,1c0.55228,0 1,-0.44772 1,-1c0,-0.55228 -0.44772,-1 -1,-1zM16,23c-0.55228,0 -1,0.44772 -1,1c0,0.55228 0.44772,1 1,1c0.55228,0 1,-0.44772 1,-1c0,-0.55228 -0.44772,-1 -1,-1zM22,23c-0.55228,0 -1,0.44772 -1,1c0,0.55228 0.44772,1 1,1c0.55228,0 1,-0.44772 1,-1c0,-0.55228 -0.44772,-1 -1,-1zM7,26c-0.55228,0 -1,0.44772 -1,1c0,0.55228 0.44772,1 1,1c0.55228,0 1,-0.44772 1,-1c0,-0.55228 -0.44772,-1 -1,-1zM13,26c-0.55228,0 -1,0.44772 -1,1c0,0.55228 0.44772,1 1,1c0.55228,0 1,-0.44772 1,-1c0,-0.55228 -0.44772,-1 -1,-1zM19,26c-0.55228,0 -1,0.44772 -1,1c0,0.55228 0.44772,1 1,1c0.55228,0 1,-0.44772 1,-1c0,-0.55228 -0.44772,-1 -1,-1zM25,26c-0.55228,0 -1,0.44772 -1,1c0,0.55228 0.44772,1 1,1c0.55228,0 1,-0.44772 1,-1c0,-0.55228 -0.44772,-1 -1,-1zM10,29c-0.55228,0 -1,0.44772 -1,1c0,0.55228 0.44772,1 1,1c0.55228,0 1,-0.44772 1,-1c0,-0.55228 -0.44772,-1 -1,-1zM16,29c-0.55228,0 -1,0.44772 -1,1c0,0.55228 0.44772,1 1,1c0.55228,0 1,-0.44772 1,-1c0,-0.55228 -0.44772,-1 -1,-1zM22,29c-0.55228,0 -1,0.44772 -1,1c0,0.55228 0.44772,1 1,1c0.55228,0 1,-0.44772 1,-1c0,-0.55228 -0.44772,-1 -1,-1zM28,29c-0.55228,0 -1,0.44772 -1,1c0,0.55228 0.44772,1 1,1c0.55228,0 1,-0.44772 1,-1c0,-0.55228 -0.44772,-1 -1,-1zM19,32c-0.55228,0 -1,0.44772 -1,1c0,0.55228 0.44772,1 1,1c0.55228,0 1,-0.44772 1,-1c0,-0.55228 -0.44772,-1 -1,-1zM25,32c-0.55228,0 -1,0.44772 -1,1c0,0.55228 0.44772,1 1,1c0.55228,0 1,-0.44772 1,-1c0,-0.55228 -0.44772,-1 -1,-1zM31,32c-0.55228,0 -1,0.44772 -1,1c0,0.55228 0.44772,1 1,1c0.55228,0 1,-0.44772 1,-1c0,-0.55228 -0.44772,-1 -1,-1zM37,32c-0.55228,0 -1,0.44772 -1,1c0,0.55228 0.44772,1 1,1c0.55228,0 1,-0.44772 1,-1c0,-0.55228 -0.44772,-1 -1,-1zM9,33c2.18699,0 4.61688,1.6233 8.53125,3.41016c3.91437,1.78686 9.28855,3.58984 17.46875,3.58984c2.08824,0 3.98034,-0.39905 5.49219,-0.85156c-0.25422,0.27824 -0.5166,0.54819 -0.78516,0.8125c-0.29079,0.15722 -3.87647,2.03906 -9.70703,2.03906c-2.9981,0 -5.34177,-0.70554 -7.38086,-1.44141c-2.03909,-0.73587 -3.76195,-1.55859 -5.61914,-1.55859c-1.16428,0 -2.1719,0.54031 -2.57227,1.37891c-0.40037,0.83859 -0.28727,1.68926 -0.10351,2.44727c0.02557,0.10547 0.06597,0.1992 0.0957,0.30273c-3.41005,-1.99768 -6.21112,-4.92264 -8.04297,-8.43945c0.02898,-0.08513 0.14375,-0.39709 0.49219,-0.79297c0.39931,-0.45367 0.98274,-0.89648 2.13086,-0.89648zM28,35c-0.55228,0 -1,0.44772 -1,1c0,0.55228 0.44772,1 1,1c0.55228,0 1,-0.44772 1,-1c0,-0.55228 -0.44772,-1 -1,-1zM34,35c-0.55228,0 -1,0.44772 -1,1c0,0.55228 0.44772,1 1,1c0.55228,0 1,-0.44772 1,-1c0,-0.55228 -0.44772,-1 -1,-1zM40,35c-0.55228,0 -1,0.44772 -1,1c0,0.55228 0.44772,1 1,1c0.55228,0 1,-0.44772 1,-1c0,-0.55228 -0.44772,-1 -1,-1zM17,41c1.20381,0 2.82399,0.67727 4.94141,1.44141c2.11741,0.76413 4.74369,1.55859 8.05859,1.55859c1.79189,0 3.39004,-0.18247 4.79688,-0.4375c-0.90131,0.47876 -1.84287,0.89137 -2.81641,1.23633c-0.09557,-0.46537 -0.50538,-0.79926 -0.98047,-0.79883c-0.55228,0 -1,0.44772 -1,1c0.00002,0.12782 0.02456,0.25446 0.07227,0.37305c-1.62386,0.40498 -3.3208,0.62695 -5.07227,0.62695c0.55228,0 1,-0.44772 1,-1c0,-0.55228 -0.44772,-1 -1,-1c-0.55228,0 -1,0.44772 -1,1c-0.0005,0.5231 0.40224,0.9582 0.92383,0.99805c-1.72435,-0.00616 -3.39486,-0.22926 -4.99609,-0.62695c0.04747,-0.11798 0.07199,-0.24393 0.07227,-0.37109c0,-0.55228 -0.44772,-1 -1,-1c-0.47689,0.00013 -0.88733,0.33699 -0.98047,0.80469c-0.29572,-0.10433 -0.58556,-0.22084 -0.875,-0.33789c-0.11974,-0.21359 -0.43632,-0.80715 -0.70312,-1.57227c0.34107,-0.16778 0.55754,-0.51442 0.55859,-0.89453c-0.00003,-0.40823 -0.2482,-0.77545 -0.62695,-0.92773c0.09517,-0.04475 0.27022,-0.07227 0.62695,-0.07227z"></path></g></g></svg>